<svg xmlns="http://www.w3.org/2000/svg" viewBox="0 0 756.45 170.38"><defs><style>.cls-1{fill:#fff;}.cls-2{fill:#d80751;}</style></defs><g id="Layer_2" data-name="Layer 2"><g id="Layer_1-2" data-name="Layer 1"><path class="cls-1" d="M85,79.92q-8.77,0-14.42-4.8A15.48,15.48,0,0,1,65,62.79a14.28,14.28,0,0,1,6-12.23q6-4.38,16.76-4.38a49.78,49.78,0,0,1,6.38.41,62.53,62.53,0,0,1,6.16,1.15V45q0-4.19-2.66-6.22t-7.89-2a29.56,29.56,0,0,0-7.31,1A65.55,65.55,0,0,0,73,41.16L66.94,28.73a71.76,71.76,0,0,1,13.11-4.54,55.27,55.27,0,0,1,12.7-1.52q11.49,0,17.86,5.49T117,43.56V79H100.27V75.64a22.83,22.83,0,0,1-7,3.29A31.83,31.83,0,0,1,85,79.92Zm-4-17.45a4.57,4.57,0,0,0,2.3,4.08A11.76,11.76,0,0,0,89.72,68a24.62,24.62,0,0,0,5.69-.63,15.83,15.83,0,0,0,4.86-2V58.3a36.38,36.38,0,0,0-4.91-.94A41,41,0,0,0,90.24,57a13.52,13.52,0,0,0-6.79,1.41A4.43,4.43,0,0,0,81.05,62.47Z"/><path class="cls-1" d="M125.76,79V23.72h16.93v3.76a23.41,23.41,0,0,1,6.84-3.56,25.55,25.55,0,0,1,8-1.25q9.72,0,15.88,6.27t6.16,16V79H162.64V47.22a9.51,9.51,0,0,0-10-10,13.79,13.79,0,0,0-5.75,1.15,11.31,11.31,0,0,0-4.17,3.24V79Z"/><path class="cls-1" d="M196.8,18.6a9,9,0,0,1-6.58-2.72A9,9,0,0,1,187.5,9.3a9,9,0,0,1,2.72-6.58,9.32,9.32,0,0,1,13.16,0A9,9,0,0,1,206.1,9.3a9,9,0,0,1-2.72,6.58A9,9,0,0,1,196.8,18.6Zm8.46,5.12V79H188.34V23.72Z"/><path class="cls-1" d="M214.46,79V23.72h16.92v3.76a23.41,23.41,0,0,1,6.84-3.56,25.66,25.66,0,0,1,8-1.25q9.71,0,15.88,6.27t6.16,16V79H251.34V47.22a9.51,9.51,0,0,0-10-10,13.76,13.76,0,0,0-5.75,1.15,11.35,11.35,0,0,0-4.18,3.24V79Z"/><path class="cls-1" d="M282.78,62.16V37.82H271.6V23.72h11.18V9.51l16.93-3.66V23.72h15.46v14.1H299.71v21q0,3.66,1.62,5.17c1.08,1,3,1.51,5.69,1.51a25,25,0,0,0,3.76-.26,28.31,28.31,0,0,0,3.87-.88V78a34.59,34.59,0,0,1-5.85,1.2,45.69,45.69,0,0,1-6,.47q-9.93,0-15-4.44T282.78,62.16Z"/><path class="cls-1" d="M371.17,71.67A35.74,35.74,0,0,1,360.46,78a36.33,36.33,0,0,1-12.38,2,31.82,31.82,0,0,1-11.81-2.2,28.46,28.46,0,0,1-15.93-15.2A27.21,27.21,0,0,1,318,51.4,28.85,28.85,0,0,1,326.35,31,27.76,27.76,0,0,1,335.49,25a29.25,29.25,0,0,1,11.33-2.19A27,27,0,0,1,358,25.07a27.4,27.4,0,0,1,8.83,6.27,28.62,28.62,0,0,1,5.8,9.56A34.28,34.28,0,0,1,374.72,53v4.18H335.33a14.71,14.71,0,0,0,5.23,6.32,14.34,14.34,0,0,0,8.35,2.45,17.19,17.19,0,0,0,6.27-1.09A13.87,13.87,0,0,0,360,61.74Zm-24.66-35.1a11.59,11.59,0,0,0-7.21,2.29A12.29,12.29,0,0,0,335,45.34h23.09A13.42,13.42,0,0,0,353.67,39,11.33,11.33,0,0,0,346.51,36.57Z"/><path class="cls-1" d="M485.35,79.19a28,28,0,0,1-11-2.19,27.5,27.5,0,0,1-8.93-6,28.4,28.4,0,0,1-6-9,27.94,27.94,0,0,1-2.19-11,27.14,27.14,0,0,1,2.24-11,28,28,0,0,1,6.12-8.88,29.38,29.38,0,0,1,27.68-7.21,26.44,26.44,0,0,1,6.58,2.72V23.72h16.72V78.46q0,11.17-7.42,17.18t-21.21,6a62.72,62.72,0,0,1-12.64-1.25,49.7,49.7,0,0,1-11-3.55L470,83.68a46.79,46.79,0,0,0,8.88,3.14,38.15,38.15,0,0,0,8.78,1q6,0,9-2.4c2-1.6,3-4,3-7.21V74.8A26,26,0,0,1,492.87,78,24.81,24.81,0,0,1,485.35,79.19ZM473.86,51A13.28,13.28,0,0,0,478,61a14.2,14.2,0,0,0,10.24,4,18.54,18.54,0,0,0,6.32-1,15.34,15.34,0,0,0,5.06-3V41.37a17.14,17.14,0,0,0-5.12-3,17.41,17.41,0,0,0-6.16-1.09,14.47,14.47,0,0,0-10.29,4A12.79,12.79,0,0,0,473.86,51Z"/><path class="cls-1" d="M576.45,71.67A35.5,35.5,0,0,1,565.74,78a36.25,36.25,0,0,1-12.38,2,31.77,31.77,0,0,1-11.8-2.2A28.89,28.89,0,0,1,532,71.77a28.57,28.57,0,0,1-6.37-9.14,27.22,27.22,0,0,1-2.36-11.23,28.33,28.33,0,0,1,2.25-11.23A28.63,28.63,0,0,1,531.63,31,28,28,0,0,1,540.77,25a29.3,29.3,0,0,1,11.34-2.19,27,27,0,0,1,11.18,2.29,27.35,27.35,0,0,1,8.82,6.27,28.29,28.29,0,0,1,5.8,9.56A34.06,34.06,0,0,1,580,53v4.18H540.62a14.62,14.62,0,0,0,5.22,6.32,14.38,14.38,0,0,0,8.36,2.45,17.19,17.19,0,0,0,6.27-1.09,13.74,13.74,0,0,0,4.8-3.09ZM551.8,36.57a11.59,11.59,0,0,0-7.21,2.29,12.36,12.36,0,0,0-4.29,6.48h23.09A13.28,13.28,0,0,0,559,39,11.3,11.3,0,0,0,551.8,36.57Z"/><path class="cls-1" d="M586.69,79V23.72h16.92v3.76a23.41,23.41,0,0,1,6.84-3.56,25.66,25.66,0,0,1,8-1.25q9.7,0,15.88,6.27t6.16,16V79H623.57V47.22a9.51,9.51,0,0,0-10-10,13.76,13.76,0,0,0-5.75,1.15,11.43,11.43,0,0,0-4.18,3.24V79Z"/><path class="cls-1" d="M676.85,65.4a14.13,14.13,0,0,0,6.37-1.46,19.22,19.22,0,0,0,5.64-4.5l10,10.45a28.54,28.54,0,0,1-10.24,7.47A31,31,0,0,1,676,80a30.28,30.28,0,0,1-11.54-2.2A28.18,28.18,0,0,1,646.76,51.4,28.71,28.71,0,0,1,649,40.07,27.66,27.66,0,0,1,655.17,31,29.87,29.87,0,0,1,676,22.67a31.77,31.77,0,0,1,13,2.72,30,30,0,0,1,10.45,7.52L689.07,43.67a21.63,21.63,0,0,0-6-4.81,14.39,14.39,0,0,0-6.68-1.56,11.89,11.89,0,0,0-9.14,4.07,14.33,14.33,0,0,0-3.71,10,14,14,0,0,0,3.81,10A12.52,12.52,0,0,0,676.85,65.4Z"/><path class="cls-1" d="M752.9,71.67A35.5,35.5,0,0,1,742.19,78a36.25,36.25,0,0,1-12.38,2,31.77,31.77,0,0,1-11.8-2.2,29,29,0,0,1-9.56-6.06,28.57,28.57,0,0,1-6.37-9.14,27.21,27.21,0,0,1-2.35-11.23A28.33,28.33,0,0,1,702,40.17,28.8,28.8,0,0,1,708.08,31,28,28,0,0,1,717.22,25a29.3,29.3,0,0,1,11.34-2.19,27,27,0,0,1,11.18,2.29,27.5,27.5,0,0,1,8.83,6.27,28.43,28.43,0,0,1,5.79,9.56A34.06,34.06,0,0,1,756.45,53v4.18H717.07a14.62,14.62,0,0,0,5.22,6.32,14.38,14.38,0,0,0,8.36,2.45,17.19,17.19,0,0,0,6.27-1.09,13.74,13.74,0,0,0,4.8-3.09Zm-24.65-35.1A11.59,11.59,0,0,0,721,38.86a12.36,12.36,0,0,0-4.29,6.48h23.09A13.28,13.28,0,0,0,735.4,39,11.3,11.3,0,0,0,728.25,36.57Z"/><path class="cls-2" d="M442.1,33.05a9.29,9.29,0,0,1-9.3-9.3,9.3,9.3,0,1,1,18.6,0,9.29,9.29,0,0,1-9.3,9.3Zm8.46,6.06V79H433.64V39.11Z"/><polygon class="cls-2" points="407.52 2.17 407.52 5.85 407.52 7.79 407.52 78.98 424.45 78.98 424.45 7.79 424.45 2.19 424.45 2.17 407.52 2.17"/><rect class="cls-2" x="381.4" y="14.68" width="16.92" height="64.3"/><path class="cls-1" d="M.4,101.14V23.74H17.14v4.08a26.38,26.38,0,0,1,7-3.55A24.58,24.58,0,0,1,32,23a28.1,28.1,0,0,1,20,8.26,28.86,28.86,0,0,1,6,9.05,28.14,28.14,0,0,1,2.2,11.14A27.62,27.62,0,0,1,58,62.6a28,28,0,0,1-15.27,15A29.82,29.82,0,0,1,24,78.87a28.38,28.38,0,0,1-6.69-2.72v25ZM29.06,37.45a18.36,18.36,0,0,0-6.48,1.09,15.21,15.21,0,0,0-5.23,3.3V61.19a16.35,16.35,0,0,0,5.23,3.14,18.25,18.25,0,0,0,6.48,1.15,14.31,14.31,0,0,0,10.35-4,13.29,13.29,0,0,0,4.19-10,13.23,13.23,0,0,0-4.24-10A14.41,14.41,0,0,0,29.06,37.45Z"/><path class="cls-2" d="M7.57,162.12a8.28,8.28,0,0,1-5.46-1.74A5.58,5.58,0,0,1,0,155.85a5.43,5.43,0,0,1,2.23-4.6,9.92,9.92,0,0,1,6.11-1.68,13.31,13.31,0,0,1,2.91.31,16.17,16.17,0,0,1,2.72.82v-2.18a4,4,0,0,0-1.3-3.28A5.6,5.6,0,0,0,9,144.15a11.24,11.24,0,0,0-3,.42,21.56,21.56,0,0,0-3.44,1.32l-1.5-3a23.28,23.28,0,0,1,4.38-1.6,16.87,16.87,0,0,1,4.08-.5,9.17,9.17,0,0,1,6.22,1.92,6.84,6.84,0,0,1,2.21,5.44v13.65H14V160a9.88,9.88,0,0,1-3,1.62A10.84,10.84,0,0,1,7.57,162.12Zm-3.68-6.35a2.87,2.87,0,0,0,1.27,2.42,5.48,5.48,0,0,0,3.34.94,9.07,9.07,0,0,0,3-.49A7.28,7.28,0,0,0,14,157.18v-3.56a9.78,9.78,0,0,0-2.47-1,12.63,12.63,0,0,0-2.84-.3,5.88,5.88,0,0,0-3.48.93A2.9,2.9,0,0,0,3.89,155.77Z"/><path class="cls-2" d="M26.23,132.53v29.23h-4V133.42Z"/><path class="cls-2" d="M38.38,161.76H34.45L28.7,141.15h3.93l4,15.14,4.74-15.14h3.48l4.69,15.14,4-15.14h3.81l-5.79,20.61H47.65L43,146.66Z"/><path class="cls-2" d="M66.15,162.12a8.28,8.28,0,0,1-5.46-1.74,5.58,5.58,0,0,1-2.11-4.53,5.43,5.43,0,0,1,2.23-4.6,9.92,9.92,0,0,1,6.11-1.68,13.46,13.46,0,0,1,2.92.31,16.06,16.06,0,0,1,2.71.82v-2.18a4,4,0,0,0-1.3-3.28,5.6,5.6,0,0,0-3.72-1.09,11.24,11.24,0,0,0-3,.42,21.56,21.56,0,0,0-3.44,1.32l-1.5-3a23.28,23.28,0,0,1,4.38-1.6,17,17,0,0,1,4.09-.5,9.16,9.16,0,0,1,6.21,1.92,6.84,6.84,0,0,1,2.21,5.44v13.65h-4V160a9.76,9.76,0,0,1-3,1.62A10.84,10.84,0,0,1,66.15,162.12Zm-3.68-6.35a2.87,2.87,0,0,0,1.27,2.42,5.48,5.48,0,0,0,3.34.94,9.07,9.07,0,0,0,3-.49,7.28,7.28,0,0,0,2.47-1.46v-3.56a9.64,9.64,0,0,0-2.47-1,12.54,12.54,0,0,0-2.83-.3,5.89,5.89,0,0,0-3.49.93A2.9,2.9,0,0,0,62.47,155.77Z"/><path class="cls-2" d="M85.5,163.7l.81-1.86L78.1,141.15h4.45l6,15.75,6.64-15.75h4.37l-10,23.08a11.86,11.86,0,0,1-3.23,4.71,7.3,7.3,0,0,1-4.66,1.44,10.87,10.87,0,0,1-1.19-.06,5.49,5.49,0,0,1-1-.18v-3.56c.27,0,.55.09.83.12s.62,0,1,0a4,4,0,0,0,2.4-.75A5.21,5.21,0,0,0,85.5,163.7Z"/><path class="cls-2" d="M99.75,159.09l2.19-2.68a13.71,13.71,0,0,0,3.3,1.93,9.28,9.28,0,0,0,3.42.66,6.63,6.63,0,0,0,3.56-.85,2.52,2.52,0,0,0,1.38-2.22,2.11,2.11,0,0,0-.81-1.74,5.19,5.19,0,0,0-2.51-.89l-3.72-.53a8.46,8.46,0,0,1-4.6-1.88,5,5,0,0,1-1.56-3.83,5.44,5.44,0,0,1,2.23-4.51,9.25,9.25,0,0,1,5.83-1.72,14.23,14.23,0,0,1,4.31.64,15.5,15.5,0,0,1,4,2l-2.07,2.67a13.33,13.33,0,0,0-3.3-1.64,10.45,10.45,0,0,0-3.21-.51,5.27,5.27,0,0,0-3,.77,2.35,2.35,0,0,0-1.13,2,2,2,0,0,0,.79,1.72,6.05,6.05,0,0,0,2.61.87l3.72.52a8.63,8.63,0,0,1,4.64,1.91,5,5,0,0,1,1.6,3.84,5.21,5.21,0,0,1-.67,2.57,6.46,6.46,0,0,1-1.82,2,9.36,9.36,0,0,1-2.74,1.36,11.27,11.27,0,0,1-3.4.5,16,16,0,0,1-5-.77A11.6,11.6,0,0,1,99.75,159.09Z"/><path class="cls-2" d="M130.85,156.66V144.55h-4.37v-3.4h4.37v-5.26l4-1v6.23h6.07v3.4h-6.07v11.17a2.92,2.92,0,0,0,.7,2.23,3.43,3.43,0,0,0,2.33.65,9.85,9.85,0,0,0,1.52-.1,7.41,7.41,0,0,0,1.44-.39v3.4A10.6,10.6,0,0,1,139,162a13,13,0,0,1-2,.16,6.63,6.63,0,0,1-4.57-1.4A5.1,5.1,0,0,1,130.85,156.66Z"/><path class="cls-2" d="M143.52,161.76V133.42l4-.89v10.68a8.39,8.39,0,0,1,2.77-1.84,9,9,0,0,1,3.42-.62,7.72,7.72,0,0,1,8.06,8.05v13h-4V149.49a5.16,5.16,0,0,0-1.4-3.83,5,5,0,0,0-3.7-1.39,6.25,6.25,0,0,0-2.94.69,5.84,5.84,0,0,0-2.16,2v14.82Z"/><path class="cls-2" d="M168.09,137.83a2.36,2.36,0,0,1-1.74-.75,2.49,2.49,0,0,1,0-3.52,2.36,2.36,0,0,1,1.74-.75,2.51,2.51,0,0,1,0,5Zm2,3.32v20.61h-4.05V141.15Z"/><path class="cls-2" d="M174.49,161.76V141.15h4v2.06a8.39,8.39,0,0,1,2.77-1.84,9,9,0,0,1,3.42-.62,7.72,7.72,0,0,1,8.06,8.05v13h-4V149.49a5.16,5.16,0,0,0-1.4-3.83,5,5,0,0,0-3.7-1.39,6.25,6.25,0,0,0-2.94.69,5.84,5.84,0,0,0-2.16,2v14.82Z"/><path class="cls-2" d="M197,161.76V133.42l4.05-.89v17.69l10-9.07h4.74l-10.61,9.68,11.17,10.93h-5.34l-10-9.72v9.72Z"/><path class="cls-2" d="M219.87,137.83a2.36,2.36,0,0,1-1.74-.75,2.49,2.49,0,0,1,0-3.52,2.36,2.36,0,0,1,1.74-.75,2.51,2.51,0,0,1,0,5Zm2,3.32v20.61h-4.05V141.15Z"/><path class="cls-2" d="M226.27,161.76V141.15h4v2.06a8.39,8.39,0,0,1,2.77-1.84,9,9,0,0,1,3.42-.62,7.72,7.72,0,0,1,8.06,8.05v13h-4V149.49a5.2,5.2,0,0,0-1.4-3.83,5,5,0,0,0-3.7-1.39,6.25,6.25,0,0,0-2.94.69,5.77,5.77,0,0,0-2.16,2v14.82Z"/><path class="cls-2" d="M258.25,161.92a10.09,10.09,0,0,1-4.05-.83,10.27,10.27,0,0,1-5.5-5.61,10.5,10.5,0,0,1,5.52-13.86,10.2,10.2,0,0,1,4.11-.83,10,10,0,0,1,3.22.52,10.25,10.25,0,0,1,2.9,1.54v-1.7h4V162a7.8,7.8,0,0,1-2.44,6.17q-2.46,2.17-7,2.17a18.57,18.57,0,0,1-4.39-.53,15.65,15.65,0,0,1-3.91-1.49l1.58-3.16a18.21,18.21,0,0,0,3.36,1.34,12.45,12.45,0,0,0,3.24.44,6,6,0,0,0,4.09-1.25,4.7,4.7,0,0,0,1.42-3.69v-2.31a9.75,9.75,0,0,1-2.88,1.62A9.55,9.55,0,0,1,258.25,161.92Zm-6.39-10.57a6.91,6.91,0,0,0,2,5,6.52,6.52,0,0,0,4.9,2.05,8,8,0,0,0,3.2-.63,7.1,7.1,0,0,0,2.47-1.76V146.7a6.45,6.45,0,0,0-2.45-1.76,8.15,8.15,0,0,0-3.22-.63,6.55,6.55,0,0,0-4.9,2A6.93,6.93,0,0,0,251.86,151.35Z"/><path class="cls-2" d="M274.81,156.94a2.56,2.56,0,0,1,2.55,2.55,2.52,2.52,0,0,1-.75,1.82,2.44,2.44,0,0,1-1.8.77,2.63,2.63,0,0,1-2.59-2.59,2.44,2.44,0,0,1,.77-1.8A2.52,2.52,0,0,1,274.81,156.94Z"/></g></g></svg>