<svg xmlns="http://www.w3.org/2000/svg" viewBox="0 0 355.83 65"><defs><style>.cls-1{fill:#ff8f33;}.cls-2{fill:#1d1d1b;}</style></defs><title>footer-logo</title><g id="Layer_2" data-name="Layer 2"><g id="Layer_1-2" data-name="Layer 1"><path class="cls-1" d="M1.61,18.76h0A1.62,1.62,0,0,0,0,20.37V46.56a.32.32,0,0,0,0,.16,35.75,35.75,0,0,0,2.57,4,.34.34,0,0,0,.61-.2V20.37A1.61,1.61,0,0,0,1.61,18.76Z"/><path class="cls-1" d="M8.33,11.35h0A1.61,1.61,0,0,0,6.72,13V55.24a.36.36,0,0,0,.1.25A33.8,33.8,0,0,0,9.4,57.7a.34.34,0,0,0,.54-.27V13A1.61,1.61,0,0,0,8.33,11.35Z"/><path class="cls-1" d="M15.05,4.26h0a1.62,1.62,0,0,0-1.62,1.61V60.2a.33.33,0,0,0,.18.29c.83.48,1.69.92,2.57,1.32a.34.34,0,0,0,.48-.3V5.87A1.62,1.62,0,0,0,15.05,4.26Z"/><path class="cls-1" d="M21.76,17.61h0a1.62,1.62,0,0,0-1.61,1.61V63.11a.35.35,0,0,0,.24.33c.84.26,1.7.49,2.57.69a.33.33,0,0,0,.41-.33V19.22A1.61,1.61,0,0,0,21.76,17.61Z"/><path class="cls-1" d="M28.48,0h0a1.62,1.62,0,0,0-1.61,1.61V64.49a.34.34,0,0,0,.3.34c.85.09,1.71.14,2.57.17a.33.33,0,0,0,.35-.34v-63A1.62,1.62,0,0,0,28.48,0Z"/><path class="cls-1" d="M34.65,11.35h0A1.62,1.62,0,0,0,33,13V64.59a.34.34,0,0,0,.37.34c.86-.06,1.72-.15,2.57-.28a.33.33,0,0,0,.29-.33V13A1.62,1.62,0,0,0,34.65,11.35Z"/><path class="cls-1" d="M41.37,4.86h0a1.62,1.62,0,0,0-1.61,1.61v57a.34.34,0,0,0,.43.33c.87-.24,1.73-.52,2.57-.82a.35.35,0,0,0,.22-.32V6.47A1.61,1.61,0,0,0,41.37,4.86Z"/><path class="cls-1" d="M48.09,11.81h0a1.62,1.62,0,0,0-1.61,1.61V60.8a.34.34,0,0,0,.49.3c.88-.46,1.74-1,2.57-1.48a.34.34,0,0,0,.16-.29V13.42A1.62,1.62,0,0,0,48.09,11.81Z"/><path class="cls-1" d="M54.8,16.91h0a1.62,1.62,0,0,0-1.6,1.62V56.25a.33.33,0,0,0,.55.26c.9-.78,1.76-1.61,2.58-2.47a.42.42,0,0,0,.09-.24V18.53A1.63,1.63,0,0,0,54.8,16.91Z"/><path class="cls-1" d="M63.14,25.78a1.62,1.62,0,0,0-1.61-1.62h0a1.63,1.63,0,0,0-1.62,1.62V48.44a.34.34,0,0,0,.63.18,35.23,35.23,0,0,0,2.57-4.91.35.35,0,0,0,0-.14Z"/><path class="cls-2" d="M96.46,34.13q0,6.94-3,10a7.76,7.76,0,0,1-5.74,2,8.15,8.15,0,0,1-6.94-3.31V57H78.29V22.42h2.48v3a8.17,8.17,0,0,1,6.94-3.3,7.76,7.76,0,0,1,5.74,2C95.46,26.17,96.46,29.5,96.46,34.13Zm-2.48,0a15.35,15.35,0,0,0-1.16-6.76,5.59,5.59,0,0,0-5.44-3.06,5.59,5.59,0,0,0-5.45,3.06,15.35,15.35,0,0,0-1.16,6.76,14.94,14.94,0,0,0,1.16,6.7,5.57,5.57,0,0,0,5.45,3.11,5.57,5.57,0,0,0,5.44-3.11A14.94,14.94,0,0,0,94,34.13Z"/><path class="cls-2" d="M117.27,45.84h-2.48V43.51a9.68,9.68,0,0,1-7.14,2.62q-4.86,0-6.9-2.14a6.26,6.26,0,0,1-1.7-4.57,6.1,6.1,0,0,1,2.16-5,9.21,9.21,0,0,1,6-1.77h7.58V30q0-5.73-6.61-5.73-4.43,0-6.46,3l-1.8-1.55c1.72-2.4,4.47-3.59,8.26-3.59q9.09,0,9.09,7.67Zm-2.48-8.17v-3H107.5c-4,0-6,1.57-6,4.71s2,4.57,6.13,4.57c2.65,0,4.6-.6,5.83-1.79C114.35,41.3,114.79,39.81,114.79,37.67Z"/><path class="cls-2" d="M138.72,45.84h-2.48V31.31q0-7-6.46-7a6.39,6.39,0,0,0-4.86,1.85,7.18,7.18,0,0,0-1.75,5.15V45.84H120.7V22.42h2.47v2.77a8.65,8.65,0,0,1,6.9-3.06,8.47,8.47,0,0,1,6.34,2.35,8.73,8.73,0,0,1,2.31,6.39Z"/><path class="cls-2" d="M148.72,14.68a3.06,3.06,0,1,1-5.2-2.15,3.05,3.05,0,0,1,5.2,2.15ZM148,45.76h-4.72V22.31H148Z"/><path class="cls-2" d="M172.22,45.76H167.5V31.47a5.25,5.25,0,0,0-1.4-4,4.48,4.48,0,0,0-3.36-1.25,4.8,4.8,0,0,0-3.46,1.25,5.24,5.24,0,0,0-1.45,4V45.76h-4.62V22.31h4.62v2.36A8.17,8.17,0,0,1,164.08,22a7.91,7.91,0,0,1,5.78,2.13,8.82,8.82,0,0,1,2.36,6.61Z"/><path class="cls-2" d="M187,45.76H184.2a6.15,6.15,0,0,1-4.86-2,6.63,6.63,0,0,1-1.57-4.53V26.33h-2.68v-3.6h2.68V15.6h4.72v7.13H187v3.6h-4.53V39c0,1.82.86,2.73,2.59,2.73H187Z"/><path class="cls-2" d="M209.37,35.4H194.19a7,7,0,0,0,1.55,4.81,5.54,5.54,0,0,0,4.4,1.76,7.72,7.72,0,0,0,5.67-2.4l3,2.82a13,13,0,0,1-3.75,2.73,12.47,12.47,0,0,1-5,.92q-10.54,0-10.54-12,0-5.66,2.68-8.82A9,9,0,0,1,199.42,22a9.25,9.25,0,0,1,7.36,3.15,12.19,12.19,0,0,1,2.59,8.14Zm-4.68-3.28a8.56,8.56,0,0,0-.64-3.2,5.11,5.11,0,0,0-9.26,0,8.45,8.45,0,0,0-.6,3.2Z"/><path class="cls-2" d="M222.5,45.76h-2.91a6.11,6.11,0,0,1-4.86-1.94,6.52,6.52,0,0,1-1.57-4.53V12.83h4.72V39c0,1.82.84,2.73,2.54,2.73h2.08Z"/><path class="cls-2" d="M234.58,45.76h-2.92a6.11,6.11,0,0,1-4.85-1.94,6.53,6.53,0,0,1-1.58-4.53V12.83H230V39q0,2.73,2.55,2.73h2.08Z"/><path class="cls-2" d="M242.86,14.68a3.07,3.07,0,1,1-.9-2.15A2.94,2.94,0,0,1,242.86,14.68Zm-.69,31.08h-4.72V22.31h4.72Z"/><path class="cls-2" d="M265.3,45.63a9.4,9.4,0,0,1-10,9.9,11.76,11.76,0,0,1-8.29-3.1l3-3a7.22,7.22,0,0,0,5.09,2.08,5.1,5.1,0,0,0,4.25-1.8,6.48,6.48,0,0,0,1.26-4.17v-3a8.37,8.37,0,0,1-11.66.6q-2.64-2.64-2.64-9.53t2.64-9.53a8.48,8.48,0,0,1,11.8.74v-2.5h4.58Zm-4.72-12a12.6,12.6,0,0,0-.79-5.1,4.61,4.61,0,0,0-8,0,12,12,0,0,0-.83,5.1,11.7,11.7,0,0,0,.83,5.06,4.57,4.57,0,0,0,8,0A12.29,12.29,0,0,0,260.58,33.62Z"/><path class="cls-2" d="M289.12,35.4H273.94a7,7,0,0,0,1.55,4.81,5.56,5.56,0,0,0,4.4,1.76,7.76,7.76,0,0,0,5.68-2.4l3,2.82a13.09,13.09,0,0,1-3.74,2.73,12.5,12.5,0,0,1-5,.92q-10.56,0-10.55-12,0-5.66,2.68-8.82A9,9,0,0,1,279.17,22a9.24,9.24,0,0,1,7.36,3.15,12.14,12.14,0,0,1,2.59,8.14Zm-4.67-3.28a8.56,8.56,0,0,0-.65-3.2,5.11,5.11,0,0,0-9.26,0,8.64,8.64,0,0,0-.6,3.2Z"/><path class="cls-2" d="M312.06,45.76h-4.71V31.47a5.25,5.25,0,0,0-1.41-4,4.48,4.48,0,0,0-3.36-1.25,4.79,4.79,0,0,0-3.45,1.25,5.24,5.24,0,0,0-1.45,4V45.76h-4.63V22.31h4.63v2.36A8.13,8.13,0,0,1,303.92,22a7.88,7.88,0,0,1,5.78,2.13,8.82,8.82,0,0,1,2.36,6.61Z"/><path class="cls-2" d="M334,42.71A10.21,10.21,0,0,1,326.27,46a9.84,9.84,0,0,1-7.22-2.73q-3.24-3.14-3.24-9.29t3.24-9.3A9.94,9.94,0,0,1,326.27,22,10.19,10.19,0,0,1,334,25.32l-3.24,3.14a6,6,0,0,0-4.48-2.22,5.22,5.22,0,0,0-4.35,2.08c-.93,1.21-1.39,3.1-1.39,5.7s.46,4.53,1.39,5.73a5.22,5.22,0,0,0,4.35,2.08,6,6,0,0,0,4.48-2.22Z"/><path class="cls-2" d="M355.83,35.4H340.65a7,7,0,0,0,1.55,4.81A5.54,5.54,0,0,0,346.6,42a7.74,7.74,0,0,0,5.67-2.4l3,2.82a13,13,0,0,1-3.75,2.73,12.47,12.47,0,0,1-5,.92q-10.55,0-10.55-12c0-3.77.89-6.71,2.69-8.82A9,9,0,0,1,345.88,22a9.27,9.27,0,0,1,7.36,3.15,12.19,12.19,0,0,1,2.59,8.14Zm-4.67-3.28a8.76,8.76,0,0,0-.65-3.2,5.11,5.11,0,0,0-9.26,0,8.45,8.45,0,0,0-.6,3.2Z"/></g></g></svg>