<?xml version="1.0" encoding="UTF-8" standalone="no"?>
<svg
   xmlns:dc="http://purl.org/dc/elements/1.1/"
   xmlns:cc="http://creativecommons.org/ns#"
   xmlns:rdf="http://www.w3.org/1999/02/22-rdf-syntax-ns#"
   xmlns:svg="http://www.w3.org/2000/svg"
   xmlns="http://www.w3.org/2000/svg"
   xmlns:sodipodi="http://sodipodi.sourceforge.net/DTD/sodipodi-0.dtd"
   xmlns:inkscape="http://www.inkscape.org/namespaces/inkscape"
   viewBox="0 0 45.000001 45.000001"
   version="1.1"
   id="svg60"
   sodipodi:docname="logo-placeholder.svg"
   width="45"
   height="45"
   inkscape:version="0.92.4 5da689c313, 2019-01-14">
  <metadata
     id="metadata64">
    <rdf:RDF>
      <cc:Work
         rdf:about="">
        <dc:format>image/svg+xml</dc:format>
        <dc:type
           rdf:resource="http://purl.org/dc/dcmitype/StillImage" />
        <dc:title>logo</dc:title>
      </cc:Work>
    </rdf:RDF>
  </metadata>
  <sodipodi:namedview
     pagecolor="#ffffff"
     bordercolor="#666666"
     borderopacity="1"
     objecttolerance="10"
     gridtolerance="10"
     guidetolerance="10"
     inkscape:pageopacity="0"
     inkscape:pageshadow="2"
     inkscape:window-width="2003"
     inkscape:window-height="624"
     id="namedview62"
     showgrid="false"
     inkscape:pagecheckerboard="true"
     fit-margin-top="0"
     fit-margin-left="0"
     fit-margin-right="0"
     fit-margin-bottom="0"
     inkscape:zoom="6.1053829"
     inkscape:cx="26.154666"
     inkscape:cy="23.739563"
     inkscape:window-x="2231"
     inkscape:window-y="494"
     inkscape:window-maximized="0"
     inkscape:current-layer="Layer_1-2" />
  <defs
     id="defs4">
    <style
       id="style2">.cls-1{fill:#fff;}</style>
  </defs>
  <title
     id="title6">logo</title>
  <g
     id="Layer_2"
     data-name="Layer 2"
     transform="translate(0.00675107,-2.1869019e-4)">
    <g
       id="Layer_1-2"
       data-name="Layer 1">
      <path
         style="fill:#ffffff;stroke-width:1.01456094"
         d="M 20.299286,6.9190068e-5 A 1.152854,1.12 0 0 0 19.147318,1.1192098 V 44.65046 a 0.23674681,0.23 0 0 0 0.215114,0.228515 c 0.607307,0.06 1.215901,0.101094 1.833501,0.121094 A 0.23674681,0.23 0 0 0 21.441205,44.7696 V 1.1192098 A 1.152854,1.12 0 0 0 20.299286,6.9190068e-5 Z M 10.725677,3.0000692 A 1.152854,1.12 0 0 0 9.5737075,4.0606161 V 41.669991 a 0.22645347,0.22 0 0 0 0.1226355,0.208984 c 0.597013,0.33 1.205607,0.630157 1.833501,0.910156 a 0.23674681,0.23 0 0 0 0.33976,-0.208984 V 4.0606161 A 1.1425607,1.11 0 0 0 10.725677,3.0000692 Z m 18.755188,0.359375 A 1.152854,1.12 0 0 0 28.338948,4.480538 v 39.439453 a 0.23674681,0.23 0 0 0 0.297542,0.230469 c 0.6176,-0.17 1.236487,-0.360313 1.833501,-0.570313 a 0.22645347,0.22 0 0 0 0.164854,-0.220703 V 4.480538 a 1.152854,1.12 0 0 0 -1.15398,-1.1210938 z m -23.5399825,4.5 a 1.152854,1.12 0 0 0 -1.15398,1.140625 V 38.250069 a 0.28821351,0.28 0 0 0 0.072375,0.169922 c 0.5867203,0.54 1.2053661,0.999297 1.8435531,1.529297 A 0.23674681,0.23 0 0 0 7.0827998,39.759835 V 9.0000692 A 1.1425607,1.11 0 0 0 5.9408825,7.8594442 Z m 18.7632295,0 a 1.1425607,1.11 0 0 0 -1.151969,1.140625 V 44.720772 a 0.23674681,0.23 0 0 0 0.257334,0.228516 c 0.6176,0 1.224184,-0.09945 1.831491,-0.189453 a 0.24704015,0.24 0 0 0 0.207073,-0.230469 V 9.0000692 A 1.152854,1.12 0 0 0 24.704112,7.8594442 Z M 34.26767,8.1699911 A 1.152854,1.12 0 0 0 33.125753,9.2891317 V 42.089913 a 0.24704015,0.24 0 0 0 0.349813,0.208984 c 0.627894,-0.32 1.234477,-0.66 1.831491,-1 A 0.23674681,0.23 0 0 0 35.41964,41.109444 V 9.2891317 A 1.152854,1.12 0 0 0 34.26767,8.1699911 Z m 4.786806,3.5390619 a 1.152854,1.12 0 0 0 -1.143928,1.121094 v 26.109375 a 0.23674681,0.23 0 0 0 0.392031,0.179688 22.799747,22.15 0 0 0 1.841543,-1.708985 0.24704015,0.24 0 0 0 0.07237,-0.160156 V 12.830147 a 1.152854,1.12 0 0 0 -1.162021,-1.121094 z m -23.541994,0.480469 a 1.152854,1.12 0 0 0 -1.101709,1.109375 v 30.390625 a 0.24704015,0.24 0 0 0 0.164855,0.230469 c 0.607307,0.18 1.215658,0.340469 1.843552,0.480469 a 0.23674681,0.23 0 0 0 0.28749,-0.230469 V 13.298897 A 1.1425607,1.11 0 0 0 15.512482,12.189522 Z M 1.1440253,13.000069 A 1.1425607,1.11 0 0 0 9.7533056e-5,14.099678 v 18.13086 a 0.27792017,0.27 0 0 0 0,0.11914 A 25.023109,24.31 0 0 0 1.8335987,35.128975 0.24107081,0.23420077 0 0 0 2.2959947,35.000069 V 14.099678 A 1.152854,1.12 0 0 0 1.1440253,13.000069 Z M 43.84128,16.730538 a 1.1425607,1.11 0 0 0 -1.143928,1.109375 v 15.699218 a 0.23674681,0.23 0 0 0 0.442293,0.121094 25.733349,25 0 0 0 1.833501,-3.40039 0.30880019,0.3 0 0 0 0,-0.09961 l 0.0201,-12.320312 A 1.152854,1.12 0 0 0 43.84128,16.730538 Z"
         id="path8"
         inkscape:connector-curvature="0" />
    </g>
  </g>
</svg>
