<svg xmlns="http://www.w3.org/2000/svg" viewBox="0 0 246.34 45"><defs><style>.cls-1{fill:#fff;}</style></defs><title>logo</title><g id="Layer_2" data-name="Layer 2"><g id="Layer_1-2" data-name="Layer 1"><path class="cls-1" d="M1.11,13h0A1.11,1.11,0,0,0,0,14.1V32.23a.27.27,0,0,0,0,.12,24.31,24.31,0,0,0,1.78,2.78A.23.23,0,0,0,2.23,35V14.1A1.12,1.12,0,0,0,1.11,13Z"/><path class="cls-1" d="M5.77,7.86h0A1.12,1.12,0,0,0,4.65,9V38.25a.28.28,0,0,0,.07.17c.57.54,1.17,1,1.79,1.53a.23.23,0,0,0,.37-.19V9A1.11,1.11,0,0,0,5.77,7.86Z"/><path class="cls-1" d="M10.42,3h0A1.12,1.12,0,0,0,9.3,4.06V41.67a.22.22,0,0,0,.12.21c.58.33,1.17.63,1.78.91a.23.23,0,0,0,.33-.21V4.06A1.11,1.11,0,0,0,10.42,3Z"/><path class="cls-1" d="M15.07,12.19h0A1.12,1.12,0,0,0,14,13.3V43.69a.24.24,0,0,0,.16.23c.59.18,1.18.34,1.79.48a.23.23,0,0,0,.28-.23V13.3A1.11,1.11,0,0,0,15.07,12.19Z"/><path class="cls-1" d="M19.72,0h0A1.12,1.12,0,0,0,18.6,1.12V44.65a.23.23,0,0,0,.21.23c.59.06,1.18.1,1.78.12a.23.23,0,0,0,.24-.23V1.12A1.12,1.12,0,0,0,19.72,0Z"/><path class="cls-1" d="M24,7.86h0A1.11,1.11,0,0,0,22.88,9V44.72a.23.23,0,0,0,.25.23c.6,0,1.19-.1,1.78-.19a.24.24,0,0,0,.2-.23V9A1.12,1.12,0,0,0,24,7.86Z"/><path class="cls-1" d="M28.64,3.36h0a1.12,1.12,0,0,0-1.11,1.12V43.92a.23.23,0,0,0,.29.23c.6-.17,1.2-.36,1.78-.57a.22.22,0,0,0,.16-.22V4.48A1.12,1.12,0,0,0,28.64,3.36Z"/><path class="cls-1" d="M33.29,8.17h0a1.12,1.12,0,0,0-1.11,1.12v32.8a.24.24,0,0,0,.34.21c.61-.32,1.2-.66,1.78-1a.23.23,0,0,0,.11-.19V9.29A1.12,1.12,0,0,0,33.29,8.17Z"/><path class="cls-1" d="M37.94,11.71h0a1.12,1.12,0,0,0-1.11,1.12V38.94a.23.23,0,0,0,.38.18A22.15,22.15,0,0,0,39,37.41a.24.24,0,0,0,.07-.16V12.83A1.12,1.12,0,0,0,37.94,11.71Z"/><path class="cls-1" d="M43.71,17.84a1.12,1.12,0,0,0-1.12-1.11h0a1.11,1.11,0,0,0-1.11,1.11v15.7a.23.23,0,0,0,.43.12,25,25,0,0,0,1.78-3.4.3.3,0,0,0,0-.1Z"/><path class="cls-1" d="M66.78,23.63q0,4.8-2.08,6.89a5.41,5.41,0,0,1-4,1.42,5.66,5.66,0,0,1-4.8-2.29v9.82H54.2V15.52h1.72v2.09a5.64,5.64,0,0,1,4.8-2.29,5.4,5.4,0,0,1,4,1.41Q66.79,18.82,66.78,23.63Zm-1.71,0A10.6,10.6,0,0,0,64.26,19a3.88,3.88,0,0,0-3.77-2.12A3.88,3.88,0,0,0,56.72,19a10.62,10.62,0,0,0-.8,4.68,10.36,10.36,0,0,0,.8,4.64,4.38,4.38,0,0,0,7.54,0A10.34,10.34,0,0,0,65.07,23.63Z"/><path class="cls-1" d="M81.19,31.73H79.47V30.12a6.69,6.69,0,0,1-5,1.82c-2.24,0-3.83-.5-4.77-1.48a4.35,4.35,0,0,1-1.18-3.17,4.18,4.18,0,0,1,1.5-3.44,6.36,6.36,0,0,1,4.15-1.23h5.25V20.8c0-2.64-1.53-4-4.58-4a5.06,5.06,0,0,0-4.47,2.05l-1.24-1.07c1.18-1.66,3.09-2.49,5.71-2.49q6.3,0,6.3,5.31Zm-1.72-5.65V24h-5c-2.76,0-4.13,1.09-4.13,3.26s1.41,3.16,4.23,3.16a5.62,5.62,0,0,0,4-1.24A4.22,4.22,0,0,0,79.47,26.08Z"/><path class="cls-1" d="M96,31.73H94.32v-10q0-4.84-4.47-4.85a4.43,4.43,0,0,0-3.37,1.28,5,5,0,0,0-1.21,3.57V31.73H83.56V15.52h1.71v1.92a6,6,0,0,1,4.78-2.12A5.86,5.86,0,0,1,94.44,17,6.07,6.07,0,0,1,96,21.37Z"/><path class="cls-1" d="M103,10.16a2.13,2.13,0,0,1-2.11,2.12,2.15,2.15,0,0,1-2.12-2.12,2.13,2.13,0,0,1,2.12-2.11A2.12,2.12,0,0,1,103,10.16Zm-.48,21.52H99.21V15.44h3.27Z"/><path class="cls-1" d="M119.23,31.68H116V21.79A3.64,3.64,0,0,0,115,19a3.1,3.1,0,0,0-2.32-.86,3.34,3.34,0,0,0-2.4.86,3.64,3.64,0,0,0-1,2.76v9.89h-3.2V15.44h3.2v1.64a5.63,5.63,0,0,1,4.32-1.83,5.47,5.47,0,0,1,4,1.48,6.1,6.1,0,0,1,1.63,4.58Z"/><path class="cls-1" d="M129.48,31.68h-2a4.27,4.27,0,0,1-3.36-1.37,4.6,4.6,0,0,1-1.09-3.14V18.23h-1.86v-2.5h1.86V10.8h3.27v4.93h3.14v2.5h-3.14V27c0,1.26.6,1.89,1.79,1.89h1.35Z"/><path class="cls-1" d="M145,24.51H134.44a4.88,4.88,0,0,0,1.07,3.33,3.85,3.85,0,0,0,3.05,1.22,5.38,5.38,0,0,0,3.93-1.67l2.07,1.95a9,9,0,0,1-2.59,1.9,8.7,8.7,0,0,1-3.49.64q-7.3,0-7.3-8.33a9.13,9.13,0,0,1,1.85-6.1,6.27,6.27,0,0,1,5-2.2,6.41,6.41,0,0,1,5.09,2.18,8.41,8.41,0,0,1,1.8,5.64Zm-3.24-2.27a5.89,5.89,0,0,0-.45-2.22,3.53,3.53,0,0,0-6.4,0,5.77,5.77,0,0,0-.42,2.22Z"/><path class="cls-1" d="M154,31.68h-2a4.23,4.23,0,0,1-3.36-1.34,4.51,4.51,0,0,1-1.09-3.14V8.88h3.27V27c0,1.26.58,1.89,1.76,1.89H154Z"/><path class="cls-1" d="M162.4,31.68h-2A4.23,4.23,0,0,1,157,30.34a4.51,4.51,0,0,1-1.09-3.14V8.88h3.27V27c0,1.26.58,1.89,1.76,1.89h1.44Z"/><path class="cls-1" d="M168.13,10.16A2.13,2.13,0,0,1,166,12.28a2.15,2.15,0,0,1-2.12-2.12A2.13,2.13,0,0,1,166,8.05a2.12,2.12,0,0,1,2.11,2.11Zm-.48,21.52h-3.26V15.44h3.26Z"/><path class="cls-1" d="M183.67,31.59a6.51,6.51,0,0,1-6.95,6.85A8.11,8.11,0,0,1,171,36.29l2.08-2.08a5,5,0,0,0,3.53,1.44,3.53,3.53,0,0,0,2.94-1.24,4.5,4.5,0,0,0,.87-2.89V29.44a5.79,5.79,0,0,1-8.07.42q-1.83-1.83-1.83-6.6t1.83-6.6a5.87,5.87,0,0,1,8.17.52V15.44h3.17Zm-3.27-8.31a8.58,8.58,0,0,0-.55-3.54,3.19,3.19,0,0,0-5.5,0,8.19,8.19,0,0,0-.58,3.54,8,8,0,0,0,.58,3.5,3.16,3.16,0,0,0,5.5,0A8.34,8.34,0,0,0,180.4,23.28Z"/><path class="cls-1" d="M200.16,24.51H189.65a4.88,4.88,0,0,0,1.07,3.33,3.86,3.86,0,0,0,3.05,1.22,5.38,5.38,0,0,0,3.93-1.67l2.07,1.95a9,9,0,0,1-2.59,1.9,8.7,8.7,0,0,1-3.49.64q-7.31,0-7.3-8.33a9.13,9.13,0,0,1,1.86-6.1,6.24,6.24,0,0,1,5-2.2,6.42,6.42,0,0,1,5.1,2.18,8.46,8.46,0,0,1,1.79,5.64Zm-3.24-2.27a6.09,6.09,0,0,0-.44-2.22,3.54,3.54,0,0,0-6.41,0,5.77,5.77,0,0,0-.42,2.22Z"/><path class="cls-1" d="M216,31.68h-3.26V21.79a3.68,3.68,0,0,0-1-2.76,3.13,3.13,0,0,0-2.33-.86,3.34,3.34,0,0,0-2.39.86,3.64,3.64,0,0,0-1,2.76v9.89h-3.2V15.44h3.2v1.64a5.65,5.65,0,0,1,4.33-1.83,5.44,5.44,0,0,1,4,1.48A6.1,6.1,0,0,1,216,21.31Z"/><path class="cls-1" d="M231.23,29.57a7.09,7.09,0,0,1-5.35,2.31,6.83,6.83,0,0,1-5-1.9q-2.24-2.18-2.24-6.43t2.24-6.44a6.89,6.89,0,0,1,5-1.86,7.07,7.07,0,0,1,5.35,2.28L229,19.7a4.16,4.16,0,0,0-3.1-1.53,3.61,3.61,0,0,0-3,1.44,6.48,6.48,0,0,0-1,3.94,6.54,6.54,0,0,0,1,4,3.61,3.61,0,0,0,3,1.44,4.14,4.14,0,0,0,3.1-1.54Z"/><path class="cls-1" d="M246.34,24.51h-10.5a4.83,4.83,0,0,0,1.07,3.33,3.83,3.83,0,0,0,3,1.22,5.36,5.36,0,0,0,3.93-1.67L246,29.34a9,9,0,0,1-2.6,1.9,8.67,8.67,0,0,1-3.49.64q-7.31,0-7.3-8.33a9.13,9.13,0,0,1,1.86-6.1,6.25,6.25,0,0,1,5-2.2,6.42,6.42,0,0,1,5.1,2.18,8.46,8.46,0,0,1,1.79,5.64Zm-3.23-2.27a6.09,6.09,0,0,0-.45-2.22,3.54,3.54,0,0,0-6.41,0,6,6,0,0,0-.41,2.22Z"/></g></g></svg>