<?xml version="1.0" encoding="UTF-8"?> <svg xmlns="http://www.w3.org/2000/svg" id="Layer_1" data-name="Layer 1" viewBox="0 0 53.03 58.5"><defs><style>.cls-1{fill:#d80751;}</style></defs><g id="Group_1" data-name="Group 1"><g id="Group_1-2" data-name="Group 1-2"><g id="Group_223" data-name="Group 223"><g id="Group_1-3" data-name="Group 1-3"><g id="Group_1-4" data-name="Group 1-4"><path id="Path_1" data-name="Path 1" class="cls-1" d="M702.44,378.52a7,7,0,1,1,5-2.06A6.8,6.8,0,0,1,702.44,378.52Zm6.41,4.58v30.21H696V383.1Z" transform="translate(-656.45 -355.12)"></path><path id="Path_2" data-name="Path 2" class="cls-1" d="M676.24,355.12v58.2h12.82v-58.2Z" transform="translate(-656.45 -355.12)"></path><rect id="Rectangle_14" data-name="Rectangle 14" class="cls-1" y="9.48" width="12.82" height="48.72"></rect></g></g></g></g></g><g id="Group_618" data-name="Group 618"><g id="Component_5_1" data-name="Component 5 1"><path id="Path_1-2" data-name="Path 1-2" class="cls-1" d="M701.91,378.64a6.65,6.65,0,0,1-4.93-2.07,7.2,7.2,0,0,1,0-10,6.91,6.91,0,0,1,9.77-.09l.09.09a7.2,7.2,0,0,1,0,10A6.65,6.65,0,0,1,701.91,378.64Zm6.34,4.61v30.37H695.57V383.25Z" transform="translate(-656.45 -355.12)"></path><path id="Path_2-2" data-name="Path 2-2" class="cls-1" d="M676,355.12v58.5h12.68v-58.5Z" transform="translate(-656.45 -355.12)"></path><rect id="Rectangle_14-2" data-name="Rectangle 14-2" class="cls-1" y="9.53" width="12.68" height="48.97"></rect></g></g></svg> 